<svg xmlns="http://www.w3.org/2000/svg" xmlns:xlink="http://www.w3.org/1999/xlink" width="500" zoomAndPan="magnify" viewBox="0 0 375 374.999991" height="500" preserveAspectRatio="xMidYMid meet" version="1.0"><defs><g/><clipPath id="59cbd45802"><path d="M 114.914062 153.742188 L 136.585938 153.742188 L 136.585938 175.414062 L 114.914062 175.414062 Z M 114.914062 153.742188 " clip-rule="nonzero"/></clipPath><clipPath id="a528d144cd"><path d="M 125.75 153.742188 C 119.765625 153.742188 114.914062 158.59375 114.914062 164.578125 C 114.914062 170.5625 119.765625 175.414062 125.75 175.414062 C 131.734375 175.414062 136.585938 170.5625 136.585938 164.578125 C 136.585938 158.59375 131.734375 153.742188 125.75 153.742188 Z M 125.75 153.742188 " clip-rule="nonzero"/></clipPath><clipPath id="3d3ea1f8d2"><path d="M 114 127 L 261 127 L 261 192 L 114 192 Z M 114 127 " clip-rule="nonzero"/></clipPath><clipPath id="5f3b4d1789"><path d="M 107.585938 163.332031 L 253.203125 113.984375 L 267.402344 155.894531 L 121.789062 205.238281 Z M 107.585938 163.332031 " clip-rule="nonzero"/></clipPath><clipPath id="2e160af4cc"><path d="M 107.585938 163.332031 L 253.203125 113.984375 L 267.402344 155.894531 L 121.789062 205.238281 Z M 107.585938 163.332031 " clip-rule="nonzero"/></clipPath><clipPath id="d85e2ae799"><path d="M 136.582031 112.367188 L 229.386719 112.367188 L 229.386719 205.171875 L 136.582031 205.171875 Z M 136.582031 112.367188 " clip-rule="nonzero"/></clipPath><clipPath id="56bf006fa2"><path d="M 182.984375 205.171875 C 208.613281 205.171875 229.386719 184.398438 229.386719 158.769531 C 229.386719 133.144531 208.613281 112.367188 182.984375 112.367188 C 157.359375 112.367188 136.582031 133.144531 136.582031 158.769531 C 136.582031 184.398438 157.359375 205.171875 182.984375 205.171875 Z M 182.984375 205.171875 " clip-rule="nonzero"/></clipPath><clipPath id="ab2b0ba797"><path d="M 221.847656 143.871094 L 251.652344 143.871094 L 251.652344 173.675781 L 221.847656 173.675781 Z M 221.847656 143.871094 " clip-rule="nonzero"/></clipPath><clipPath id="4b43d85d45"><path d="M 236.75 143.871094 C 228.519531 143.871094 221.847656 150.542969 221.847656 158.773438 C 221.847656 167.003906 228.519531 173.675781 236.75 173.675781 C 244.980469 173.675781 251.652344 167.003906 251.652344 158.773438 C 251.652344 150.542969 244.980469 143.871094 236.75 143.871094 Z M 236.75 143.871094 " clip-rule="nonzero"/></clipPath><clipPath id="f18f23e56b"><path d="M 160.878906 137.097656 L 215.832031 137.097656 L 215.832031 192.050781 L 160.878906 192.050781 Z M 160.878906 137.097656 " clip-rule="nonzero"/></clipPath><clipPath id="76b8b74980"><path d="M 188.355469 192.050781 C 203.53125 192.050781 215.832031 179.746094 215.832031 164.574219 C 215.832031 149.398438 203.53125 137.097656 188.355469 137.097656 C 173.179688 137.097656 160.878906 149.398438 160.878906 164.574219 C 160.878906 179.746094 173.179688 192.050781 188.355469 192.050781 Z M 188.355469 192.050781 " clip-rule="nonzero"/></clipPath></defs><rect x="-37.5" width="450" fill="#ffffff" y="-37.499999" height="449.999989" fill-opacity="1"/><rect x="-37.5" width="450" fill="#f13223" y="-37.499999" height="449.999989" fill-opacity="1"/><g clip-path="url(#59cbd45802)"><g clip-path="url(#a528d144cd)"><path fill="#ffffff" d="M 114.914062 153.742188 L 136.585938 153.742188 L 136.585938 175.414062 L 114.914062 175.414062 Z M 114.914062 153.742188 " fill-opacity="1" fill-rule="nonzero"/></g></g><g clip-path="url(#3d3ea1f8d2)"><g clip-path="url(#5f3b4d1789)"><g clip-path="url(#2e160af4cc)"><path fill="#000000" d="M 260.324219 134.886719 C 260.554688 135.574219 260.667969 136.296875 260.667969 137.054688 C 260.664062 137.816406 260.542969 138.613281 260.304688 139.441406 C 260.066406 140.269531 259.714844 141.128906 259.242188 142.019531 C 258.773438 142.910156 258.1875 143.824219 257.488281 144.765625 C 256.792969 145.707031 255.984375 146.671875 255.0625 147.65625 C 254.144531 148.640625 253.117188 149.644531 251.984375 150.660156 C 250.851562 151.679688 249.621094 152.710938 248.285156 153.75 C 246.953125 154.792969 245.523438 155.84375 244 156.898438 C 242.480469 157.953125 240.871094 159.011719 239.171875 160.070312 C 237.476562 161.128906 235.703125 162.183594 233.847656 163.238281 C 231.992188 164.289062 230.070312 165.332031 228.074219 166.371094 C 226.082031 167.40625 224.027344 168.425781 221.910156 169.4375 C 219.796875 170.445312 217.632812 171.433594 215.417969 172.40625 C 213.203125 173.378906 210.945312 174.328125 208.652344 175.253906 C 206.359375 176.179688 204.035156 177.078125 201.6875 177.953125 C 199.335938 178.824219 196.96875 179.664062 194.582031 180.472656 C 192.195312 181.277344 189.804688 182.050781 187.410156 182.789062 C 185.011719 183.527344 182.621094 184.226562 180.238281 184.882812 C 177.855469 185.542969 175.488281 186.160156 173.136719 186.734375 C 170.789062 187.308594 168.464844 187.839844 166.175781 188.324219 C 163.882812 188.808594 161.628906 189.246094 159.417969 189.636719 C 157.203125 190.027344 155.039062 190.367188 152.929688 190.660156 C 150.816406 190.949219 148.765625 191.191406 146.773438 191.382812 C 144.785156 191.574219 142.863281 191.710938 141.011719 191.800781 C 139.160156 191.886719 137.390625 191.921875 135.699219 191.90625 C 134.003906 191.890625 132.398438 191.820312 130.882812 191.699219 C 129.363281 191.582031 127.941406 191.410156 126.613281 191.1875 C 125.28125 190.964844 124.054688 190.691406 122.929688 190.367188 C 121.800781 190.042969 120.78125 189.671875 119.867188 189.25 C 118.953125 188.832031 118.148438 188.363281 117.453125 187.851562 C 116.761719 187.335938 116.183594 186.777344 115.71875 186.175781 C 115.253906 185.574219 114.90625 184.929688 114.671875 184.246094 C 114.441406 183.5625 114.328125 182.839844 114.328125 182.078125 C 114.332031 181.316406 114.453125 180.523438 114.691406 179.695312 C 114.929688 178.863281 115.28125 178.003906 115.753906 177.117188 C 116.222656 176.226562 116.808594 175.308594 117.507812 174.367188 C 118.203125 173.425781 119.011719 172.464844 119.933594 171.480469 C 120.851562 170.492188 121.878906 169.492188 123.011719 168.472656 C 124.144531 167.457031 125.375 166.425781 126.710938 165.382812 C 128.042969 164.339844 129.472656 163.292969 130.996094 162.238281 C 132.515625 161.183594 134.125 160.125 135.824219 159.066406 C 137.519531 158.007812 139.292969 156.949219 141.148438 155.898438 C 143.003906 154.84375 144.925781 153.800781 146.921875 152.765625 C 148.914062 151.730469 150.96875 150.707031 153.085938 149.699219 C 155.199219 148.691406 157.363281 147.699219 159.578125 146.726562 C 161.792969 145.757812 164.050781 144.808594 166.34375 143.878906 C 168.636719 142.953125 170.960938 142.054688 173.308594 141.183594 C 175.660156 140.3125 178.027344 139.472656 180.414062 138.664062 C 182.800781 137.855469 185.191406 137.082031 187.585938 136.347656 C 189.984375 135.609375 192.375 134.910156 194.757812 134.25 C 197.140625 133.59375 199.507812 132.976562 201.859375 132.398438 C 204.207031 131.824219 206.53125 131.296875 208.824219 130.8125 C 211.113281 130.328125 213.367188 129.890625 215.578125 129.5 C 217.792969 129.109375 219.957031 128.769531 222.066406 128.476562 C 224.179688 128.183594 226.230469 127.945312 228.222656 127.753906 C 230.210938 127.5625 232.132812 127.421875 233.984375 127.335938 C 235.835938 127.25 237.605469 127.214844 239.296875 127.230469 C 240.992188 127.246094 242.597656 127.3125 244.113281 127.433594 C 245.632812 127.554688 247.054688 127.726562 248.382812 127.949219 C 249.714844 128.171875 250.941406 128.445312 252.070312 128.769531 C 253.195312 129.089844 254.214844 129.460938 255.128906 129.882812 C 256.046875 130.304688 256.847656 130.769531 257.542969 131.285156 C 258.234375 131.796875 258.8125 132.355469 259.277344 132.957031 C 259.742188 133.5625 260.089844 134.203125 260.324219 134.886719 Z M 260.324219 134.886719 " fill-opacity="1" fill-rule="nonzero"/></g></g></g><g clip-path="url(#d85e2ae799)"><g clip-path="url(#56bf006fa2)"><path fill="#000000" d="M 229.386719 205.171875 L 136.582031 205.171875 L 136.582031 112.367188 L 229.386719 112.367188 Z M 229.386719 205.171875 " fill-opacity="1" fill-rule="nonzero"/></g></g><g clip-path="url(#ab2b0ba797)"><g clip-path="url(#4b43d85d45)"><path fill="#f13223" d="M 221.847656 143.871094 L 251.652344 143.871094 L 251.652344 173.675781 L 221.847656 173.675781 Z M 221.847656 143.871094 " fill-opacity="1" fill-rule="nonzero"/></g></g><g clip-path="url(#f18f23e56b)"><g clip-path="url(#76b8b74980)"><path fill="#f13223" d="M 215.832031 192.050781 L 160.878906 192.050781 L 160.878906 137.097656 L 215.832031 137.097656 Z M 215.832031 192.050781 " fill-opacity="1" fill-rule="nonzero"/></g></g><g fill="#ffffff" fill-opacity="1"><g transform="translate(190.245738, 272.109405)"><g><path d="M 3.234375 -10.265625 C 1.472656 -10.265625 0.59375 -11.242188 0.59375 -13.203125 L 0.59375 -15.84375 C 0.59375 -17.800781 1.472656 -18.78125 3.234375 -18.78125 L 9.6875 -18.78125 L 9.6875 -17.3125 L 4.6875 -17.3125 C 3.90625 -17.3125 3.515625 -16.820312 3.515625 -15.84375 L 3.515625 -13.203125 C 3.515625 -12.222656 3.90625 -11.734375 4.6875 -11.734375 L 7.328125 -11.734375 C 9.085938 -11.734375 9.96875 -10.753906 9.96875 -8.796875 L 9.96875 -5.859375 C 9.96875 -3.910156 9.085938 -2.9375 7.328125 -2.9375 L 0.875 -2.9375 L 0.875 -4.40625 L 5.859375 -4.40625 C 6.648438 -4.40625 7.046875 -4.890625 7.046875 -5.859375 L 7.046875 -8.796875 C 7.046875 -9.773438 6.648438 -10.265625 5.859375 -10.265625 Z M 3.234375 -10.265625 "/></g></g></g><g fill="#ffffff" fill-opacity="1"><g transform="translate(202.804769, 272.109405)"><g><path d="M 1.765625 -17.3125 L 4.6875 -17.3125 L 4.6875 -12.90625 L 8.796875 -12.90625 L 8.796875 -11.4375 L 4.6875 -11.4375 L 4.6875 -5.859375 C 4.6875 -4.890625 5.078125 -4.40625 5.859375 -4.40625 L 8.796875 -4.40625 L 8.796875 -2.9375 L 4.40625 -2.9375 C 2.644531 -2.9375 1.765625 -3.910156 1.765625 -5.859375 L 1.765625 -11.4375 L 0.59375 -11.4375 L 0.59375 -12.90625 L 1.765625 -12.90625 Z M 1.765625 -17.3125 "/></g></g></g><g fill="#ffffff" fill-opacity="1"><g transform="translate(214.190833, 272.109405)"><g><path d="M 8.796875 -2.9375 L 3.234375 -2.9375 C 1.472656 -2.9375 0.59375 -3.910156 0.59375 -5.859375 L 0.59375 -12.90625 L 3.515625 -12.90625 L 3.515625 -5.859375 C 3.515625 -4.890625 4.101562 -4.40625 5.28125 -4.40625 L 5.859375 -4.40625 L 5.859375 -12.90625 L 8.796875 -12.90625 Z M 8.796875 -2.9375 "/></g></g></g><g fill="#ffffff" fill-opacity="1"><g transform="translate(225.576897, 272.109405)"><g><path d="M 3.234375 -2.9375 C 1.472656 -2.9375 0.59375 -3.910156 0.59375 -5.859375 L 0.59375 -9.96875 C 0.59375 -11.925781 1.472656 -12.90625 3.234375 -12.90625 L 5.859375 -12.90625 L 5.859375 -18.78125 L 8.796875 -18.78125 L 8.796875 -2.9375 Z M 4.6875 -11.4375 C 3.90625 -11.4375 3.515625 -10.945312 3.515625 -9.96875 L 3.515625 -5.859375 C 3.515625 -4.890625 3.90625 -4.40625 4.6875 -4.40625 L 5.859375 -4.40625 L 5.859375 -11.4375 Z M 4.6875 -11.4375 "/></g></g></g><g fill="#ffffff" fill-opacity="1"><g transform="translate(236.962961, 272.109405)"><g><path d="M 0.984375 -12.90625 L 3.90625 -12.90625 L 3.90625 -2.9375 L 0.984375 -2.9375 Z M 2.5 -18.78125 L 4.34375 -16.921875 L 2.5 -15.0625 L 0.640625 -16.921875 Z M 2.5 -18.78125 "/></g></g></g><g fill="#ffffff" fill-opacity="1"><g transform="translate(243.950396, 272.109405)"><g><path d="M 6.15625 -2.9375 L 3.234375 -2.9375 C 1.472656 -2.9375 0.59375 -3.910156 0.59375 -5.859375 L 0.59375 -9.96875 C 0.59375 -11.925781 1.472656 -12.90625 3.234375 -12.90625 L 6.15625 -12.90625 C 7.914062 -12.90625 8.796875 -11.925781 8.796875 -9.96875 L 8.796875 -5.859375 C 8.796875 -3.910156 7.914062 -2.9375 6.15625 -2.9375 Z M 5.859375 -5.859375 L 5.859375 -9.96875 C 5.859375 -10.945312 5.46875 -11.4375 4.6875 -11.4375 C 3.90625 -11.4375 3.515625 -10.945312 3.515625 -9.96875 L 3.515625 -5.859375 C 3.515625 -4.890625 3.90625 -4.40625 4.6875 -4.40625 C 5.46875 -4.40625 5.859375 -4.890625 5.859375 -5.859375 Z M 5.859375 -5.859375 "/></g></g></g><g fill="#ffffff" fill-opacity="1"><g transform="translate(76.52819, 246.33447)"><g><path d="M 27.03125 0 L 16.75 -15.265625 L 12.578125 -15.265625 L 12.578125 0 L 4.375 0 L 4.375 -40.3125 L 19.015625 -40.3125 C 24.203125 -40.3125 27.992188 -39.378906 30.390625 -37.515625 C 32.796875 -35.648438 34 -32.59375 34 -28.34375 C 34 -24.90625 33.273438 -22.164062 31.828125 -20.125 C 30.378906 -18.082031 28.320312 -16.78125 25.65625 -16.21875 L 36.4375 0 Z M 25.65625 -28 C 25.65625 -30.050781 25.132812 -31.425781 24.09375 -32.125 C 23.0625 -32.820312 21.351562 -33.171875 18.96875 -33.171875 L 12.578125 -33.171875 L 12.578125 -22.421875 L 18.609375 -22.421875 C 20.453125 -22.421875 21.867188 -22.597656 22.859375 -22.953125 C 23.859375 -23.304688 24.570312 -23.847656 25 -24.578125 C 25.4375 -25.316406 25.65625 -26.457031 25.65625 -28 Z M 25.65625 -28 "/></g></g></g><g fill="#ffffff" fill-opacity="1"><g transform="translate(112.436595, 246.33447)"><g><path d="M 10.421875 -13.3125 C 10.554688 -10.59375 11.21875 -8.640625 12.40625 -7.453125 C 13.59375 -6.273438 15.457031 -5.6875 18 -5.6875 C 19.476562 -5.6875 20.773438 -5.867188 21.890625 -6.234375 C 23.003906 -6.597656 23.976562 -7.304688 24.8125 -8.359375 L 30.40625 -4.375 C 29.1875 -2.601562 27.597656 -1.28125 25.640625 -0.40625 C 23.691406 0.46875 21.03125 0.90625 17.65625 0.90625 C 12.625 0.90625 8.867188 -0.410156 6.390625 -3.046875 C 3.921875 -5.691406 2.6875 -9.6875 2.6875 -15.03125 C 2.6875 -25.96875 7.578125 -31.4375 17.359375 -31.4375 C 21.710938 -31.4375 25.03125 -30.207031 27.3125 -27.75 C 29.59375 -25.289062 30.734375 -21.710938 30.734375 -17.015625 L 30.734375 -13.3125 Z M 23.28125 -18.5 C 23.28125 -23.132812 21.25 -25.453125 17.1875 -25.453125 C 15.84375 -25.453125 14.742188 -25.222656 13.890625 -24.765625 C 13.035156 -24.316406 12.347656 -23.640625 11.828125 -22.734375 C 11.316406 -21.828125 10.914062 -20.414062 10.625 -18.5 Z M 23.28125 -18.5 "/></g></g></g><g fill="#ffffff" fill-opacity="1"><g transform="translate(144.238015, 246.33447)"><g><path d="M 24.296875 0 L 24.296875 -2.96875 C 22.898438 -1.78125 21.421875 -0.835938 19.859375 -0.140625 C 18.304688 0.554688 16.539062 0.90625 14.5625 0.90625 C 10.71875 0.90625 7.773438 -0.476562 5.734375 -3.25 C 3.703125 -6.03125 2.6875 -9.957031 2.6875 -15.03125 C 2.6875 -20.21875 3.804688 -24.25 6.046875 -27.125 C 8.285156 -30 11.4375 -31.4375 15.5 -31.4375 C 16.9375 -31.4375 18.410156 -31.140625 19.921875 -30.546875 C 21.441406 -29.953125 22.695312 -29.195312 23.6875 -28.28125 L 23.6875 -43.375 L 31.203125 -43.375 L 31.203125 0 Z M 23.6875 -22.078125 C 22.882812 -22.796875 21.894531 -23.429688 20.71875 -23.984375 C 19.550781 -24.535156 18.351562 -24.8125 17.125 -24.8125 C 15.101562 -24.8125 13.476562 -23.941406 12.25 -22.203125 C 11.03125 -20.472656 10.421875 -18.117188 10.421875 -15.140625 C 10.421875 -12.210938 10.921875 -9.910156 11.921875 -8.234375 C 12.921875 -6.566406 14.472656 -5.734375 16.578125 -5.734375 C 17.816406 -5.734375 19.082031 -6.019531 20.375 -6.59375 C 21.664062 -7.164062 22.769531 -7.867188 23.6875 -8.703125 Z M 23.6875 -22.078125 "/></g></g></g><g fill="#ffffff" fill-opacity="1"><g transform="translate(178.194876, 246.33447)"><g><path d="M 33.359375 -11.6875 C 33.359375 -7.644531 32.03125 -4.546875 29.375 -2.390625 C 26.726562 -0.234375 22.820312 0.84375 17.65625 0.84375 C 14.082031 0.84375 10.976562 0.253906 8.34375 -0.921875 C 5.71875 -2.109375 3.578125 -4.023438 1.921875 -6.671875 L 8.25 -11.5 C 9.175781 -10.1875 10.054688 -9.195312 10.890625 -8.53125 C 11.722656 -7.875 12.710938 -7.359375 13.859375 -6.984375 C 15.003906 -6.617188 16.328125 -6.4375 17.828125 -6.4375 C 20.054688 -6.4375 21.796875 -6.816406 23.046875 -7.578125 C 24.304688 -8.347656 24.9375 -9.519531 24.9375 -11.09375 C 24.9375 -11.988281 24.71875 -12.738281 24.28125 -13.34375 C 23.84375 -13.945312 23.1875 -14.46875 22.3125 -14.90625 C 21.4375 -15.34375 19.921875 -15.84375 17.765625 -16.40625 C 15.671875 -16.96875 13.695312 -17.535156 11.84375 -18.109375 C 9.988281 -18.679688 8.382812 -19.421875 7.03125 -20.328125 C 5.6875 -21.242188 4.625 -22.390625 3.84375 -23.765625 C 3.070312 -25.148438 2.6875 -26.890625 2.6875 -28.984375 C 2.6875 -32.804688 3.972656 -35.789062 6.546875 -37.9375 C 9.128906 -40.082031 12.832031 -41.15625 17.65625 -41.15625 C 24.625 -41.15625 29.554688 -38.769531 32.453125 -34 L 26.1875 -29.09375 C 25.082031 -30.800781 23.835938 -32.023438 22.453125 -32.765625 C 21.078125 -33.503906 19.4375 -33.875 17.53125 -33.875 C 15.632812 -33.875 14.085938 -33.53125 12.890625 -32.84375 C 11.691406 -32.15625 11.09375 -31.070312 11.09375 -29.59375 C 11.09375 -28.289062 11.710938 -27.296875 12.953125 -26.609375 C 14.203125 -25.921875 16.367188 -25.226562 19.453125 -24.53125 C 21.160156 -24.082031 22.847656 -23.597656 24.515625 -23.078125 C 26.191406 -22.566406 27.6875 -21.851562 29 -20.9375 C 30.3125 -20.03125 31.363281 -18.835938 32.15625 -17.359375 C 32.957031 -15.878906 33.359375 -13.988281 33.359375 -11.6875 Z M 33.359375 -11.6875 "/></g></g></g><g fill="#ffffff" fill-opacity="1"><g transform="translate(212.501269, 246.33447)"><g><path d="M 23.921875 0 L 23.921875 -16.84375 C 23.921875 -20.0625 23.617188 -22.191406 23.015625 -23.234375 C 22.410156 -24.285156 21.34375 -24.8125 19.8125 -24.8125 C 17.570312 -24.8125 14.878906 -23.335938 11.734375 -20.390625 L 11.734375 0 L 4.21875 0 L 4.21875 -43.375 L 11.734375 -43.375 L 11.734375 -26.59375 C 13.328125 -28.1875 15.023438 -29.390625 16.828125 -30.203125 C 18.640625 -31.023438 20.410156 -31.4375 22.140625 -31.4375 C 25.554688 -31.4375 27.957031 -30.472656 29.34375 -28.546875 C 30.738281 -26.617188 31.4375 -23.898438 31.4375 -20.390625 L 31.4375 0 Z M 23.921875 0 "/></g></g></g><g fill="#ffffff" fill-opacity="1"><g transform="translate(246.458131, 246.33447)"><g><path d="M 12.171875 -38.890625 C 12.171875 -37.472656 11.820312 -36.484375 11.125 -35.921875 C 10.425781 -35.359375 9.359375 -35.078125 7.921875 -35.078125 C 6.328125 -35.078125 5.242188 -35.40625 4.671875 -36.0625 C 4.097656 -36.71875 3.8125 -37.660156 3.8125 -38.890625 C 3.8125 -40.242188 4.125 -41.21875 4.75 -41.8125 C 5.375 -42.40625 6.429688 -42.703125 7.921875 -42.703125 C 9.429688 -42.703125 10.515625 -42.414062 11.171875 -41.84375 C 11.835938 -41.269531 12.171875 -40.285156 12.171875 -38.890625 Z M 4.21875 0 L 4.21875 -30.5625 L 11.734375 -30.5625 L 11.734375 0 Z M 4.21875 0 "/></g></g></g><g fill="#ffffff" fill-opacity="1"><g transform="translate(260.957755, 246.33447)"><g><path d="M 20.328125 -37 C 18.929688 -37.457031 17.582031 -37.6875 16.28125 -37.6875 C 14.800781 -37.6875 13.785156 -37.378906 13.234375 -36.765625 C 12.679688 -36.160156 12.40625 -35.082031 12.40625 -33.53125 L 12.40625 -30.5625 L 18.609375 -30.5625 L 18.609375 -24.578125 L 12.40625 -24.578125 L 12.40625 0 L 4.890625 0 L 4.890625 -24.578125 L 1.015625 -24.578125 L 1.015625 -30.5625 L 4.890625 -30.5625 L 4.890625 -33.53125 C 4.890625 -37.3125 5.828125 -40.046875 7.703125 -41.734375 C 9.578125 -43.429688 12.398438 -44.28125 16.171875 -44.28125 C 17.929688 -44.28125 19.800781 -44.035156 21.78125 -43.546875 Z M 20.328125 -37 "/></g></g></g><g fill="#ffffff" fill-opacity="1"><g transform="translate(278.661428, 246.33447)"><g><path d="M 21.125 0 C 19.101562 0.601562 16.972656 0.90625 14.734375 0.90625 C 11.203125 0.90625 8.660156 0.109375 7.109375 -1.484375 C 5.554688 -3.078125 4.78125 -5.660156 4.78125 -9.234375 L 4.78125 -24.578125 L 0.90625 -24.578125 L 0.90625 -30.5625 L 4.78125 -30.5625 L 4.78125 -39.0625 L 12.296875 -39.0625 L 12.296875 -30.5625 L 19.40625 -30.5625 L 19.40625 -24.578125 L 12.296875 -24.578125 L 12.296875 -10.1875 C 12.296875 -8.289062 12.585938 -7 13.171875 -6.3125 C 13.765625 -5.632812 14.609375 -5.296875 15.703125 -5.296875 C 17.078125 -5.296875 18.445312 -5.578125 19.8125 -6.140625 Z M 21.125 0 "/></g></g></g></svg>